<svg width="34" height="32" viewBox="0 0 34 32" fill="none" xmlns="http://www.w3.org/2000/svg">
<g clip-path="url(#clip0_1280_16123)">
<path d="M33.4002 21.5519V0.689453H12.4786V5.32555H3.76156V23.8699H0.855469V27.3464C0.855469 29.8956 2.94825 31.9825 5.50472 31.9825H28.751C31.3075 31.9825 33.4002 29.8956 33.4002 27.3464V23.8699H6.08619V7.6436H12.4786V21.5519H33.4002ZM29.3324 26.188H31.0756V27.3476C31.0756 28.6223 30.0292 29.6657 28.751 29.6657H5.50472C4.22649 29.6657 3.18009 28.6223 3.18009 27.3476V26.188H29.3324ZM14.8032 3.0075H31.0756V19.2338H14.8032V3.0075ZM17.1279 12.2797H28.751V5.32555H17.1279V12.2797ZM19.4525 7.6436H26.4264V9.96165H19.4525V7.6436ZM21.7771 14.5977H28.751V16.9158H21.7771V14.5977ZM17.1279 14.5977H19.4525V16.9158H17.1279V14.5977Z" fill="#604BA1"/>
</g>
<defs>
<clipPath id="clip0_1280_16123">
<rect width="32.5448" height="31.293" fill="white" transform="translate(0.855469 0.689453)"/>
</clipPath>
</defs>
</svg>
