<svg width="30" height="31" viewBox="0 0 30 31" fill="none" xmlns="http://www.w3.org/2000/svg">
<path d="M23.3349 2.7588H23.5435H29.7914V9.94758C29.7914 13.082 27.4148 15.6054 24.5239 15.6054H22.901H22.7492L22.7025 15.7499L22.6479 15.9188C22.6478 15.919 22.6478 15.9192 22.6477 15.9194C21.7121 18.754 19.5248 20.8384 16.8018 21.5059C16.8017 21.506 16.8015 21.506 16.8014 21.5061L16.6184 21.55L16.4586 21.5885V21.7529V26.5278V26.7364H16.6672H22.1735V29.8899H7.82771V26.7364H13.334H13.5426V26.5278V21.7529V21.588L13.3822 21.5499L13.1974 21.5061C13.1971 21.506 13.1968 21.5059 13.1965 21.5058C10.4748 20.8381 8.28632 18.7522 7.35213 15.9188L7.35162 15.9173L7.29411 15.7472L7.24616 15.6054H7.09648H5.47614C2.58525 15.6054 0.20862 13.082 0.20862 9.94758V2.7588H6.66639H6.87501V2.55018V0.20862H23.1262V2.55018H23.3336V2.7588H23.3349ZM6.66639 12.4519H6.87501V12.2433V6.12097V5.91235H6.66639H3.33319H3.12457V6.12097V9.94758C3.12457 11.3161 4.16488 12.4519 5.47614 12.4519H6.66639ZM10.0008 3.36217H9.79221V3.57079V13.0081C9.79221 16.0629 12.1153 18.5729 15.0006 18.5729C17.82 18.5729 20.1025 16.1763 20.2054 13.2167H20.2103V13.0081V3.57079V3.36217H20.0017H10.0008ZM23.125 12.2433V12.4519H23.3336H24.5239C25.1554 12.4519 25.7475 12.1877 26.1904 11.7133C26.6329 11.2406 26.8754 10.6119 26.8754 9.94758V6.12097V5.91235H26.6668H23.3336H23.125V6.12097V12.2433Z" fill="#604BA1" stroke="#F9FAFB" stroke-width="0.417241"/>
</svg>
