<svg width="30" height="30" viewBox="0 0 30 30" fill="none" xmlns="http://www.w3.org/2000/svg">
<path d="M29.1963 12.8353C28.9622 12.5166 28.6728 12.1519 28.298 11.8667L28.2554 11.8343C28.0328 11.6643 27.8229 11.5032 27.5935 11.3768C27.3456 11.2404 27.0631 11.1297 26.7955 11.0279C26.4969 10.9149 26.1671 10.8355 25.8142 10.7941L25.6228 10.7718L25.5421 10.6018C25.413 10.3311 25.2781 10.0761 25.1408 9.84231C24.826 9.30097 24.4317 8.75628 23.9001 8.12658C23.1137 7.19378 22.0955 6.35381 20.9574 5.69615C20.6472 5.51719 20.3093 5.34495 19.9496 5.18389L19.7755 5.1056L19.7512 4.92217C19.6509 4.17391 19.388 3.49389 18.9913 2.95255C18.7573 2.63378 18.4678 2.26916 18.0931 1.98395L18.0504 1.95152C17.8279 1.78151 17.618 1.62045 17.3885 1.49406C17.1406 1.35761 16.8581 1.24688 16.5906 1.14622C16.1259 0.968384 15.5943 0.878906 15.0431 0.878906C14.6303 0.878906 14.2071 0.929237 13.7943 1.0299C12.9076 1.24912 12.0658 1.74125 11.4858 2.38101C11.1226 2.77807 10.8827 3.1192 10.7294 3.45586C10.6014 3.72653 10.4815 3.98937 10.4054 4.25221C10.3396 4.47366 10.3062 4.70295 10.2762 4.91993L10.2508 5.10336L10.0779 5.18054C9.78845 5.31028 9.52554 5.44002 9.27302 5.57759C8.71607 5.88293 8.15335 6.26545 7.50531 6.78106C6.54709 7.54162 5.68111 8.53035 4.99963 9.63987C4.81744 9.93514 4.64216 10.2595 4.47727 10.6073L4.39655 10.7762L4.20514 10.7986C3.93185 10.8322 3.66779 10.8858 3.41872 10.9608C2.50086 11.237 1.69945 11.7437 1.16441 12.3868C0.977611 12.6128 0.810411 12.8186 0.674345 13.0344C0.526748 13.2704 0.414897 13.5377 0.293822 13.8375C0.145072 14.1965 0.0585894 14.6047 0.0124654 15.164C-0.06018 16.0252 0.187737 17.005 0.676651 17.7879C1.15865 18.5619 1.8678 19.2039 2.62193 19.5473C2.99438 19.7184 3.43948 19.9007 3.92263 19.9678C4.01488 19.9801 4.10597 19.9935 4.19822 20.0058L4.38618 20.0293L4.46574 20.1971C4.59489 20.4689 4.73095 20.725 4.86817 20.9599C5.18297 21.5012 5.57733 22.0459 6.10891 22.6756C6.89302 23.6051 7.91236 24.445 9.05623 25.106C9.3595 25.2816 9.69505 25.4528 10.0514 25.6127L10.2278 25.691L10.2497 25.8778C10.3373 26.5914 10.5956 27.2859 10.975 27.834C11.2817 28.2713 11.5608 28.5845 11.8537 28.816C12.075 28.9905 12.3045 29.1717 12.5536 29.3171C12.8084 29.4647 13.1048 29.581 13.3665 29.6839C14.1898 30.0038 15.1815 30.0575 16.1605 29.8349C17.1176 29.6202 18.0412 29.0665 18.6316 28.3518C18.8322 28.1091 19.0179 27.8832 19.162 27.6394C19.2946 27.4112 19.418 27.1417 19.5494 26.7893C19.6509 26.5187 19.7213 26.2167 19.7605 25.8901L19.7835 25.7033L19.9588 25.625C20.239 25.4986 20.4927 25.3722 20.7314 25.2403C21.2895 24.9349 21.8522 24.5524 22.5014 24.0368C23.4596 23.2762 24.3256 22.2875 25.0071 21.178C25.1904 20.8805 25.368 20.5516 25.534 20.2016L25.6148 20.0327L25.8039 20.0092C25.9757 19.9868 26.1509 19.9577 26.3262 19.9208C27.2695 19.7217 28.2208 19.1625 28.81 18.4612C29.0153 18.2163 29.2124 17.9758 29.3646 17.7141C29.5215 17.4479 29.6425 17.1526 29.7406 16.8998C29.9043 16.4737 29.9942 15.9603 30 15.4123V15.3966C29.9908 14.4538 29.6979 13.5198 29.1963 12.8353ZM12.9099 5.27337L12.9168 5.22751C12.9491 5.07204 12.9929 4.91658 13.046 4.7667L13.0633 4.72644C13.1417 4.57321 13.2305 4.42445 13.3285 4.28464L13.3561 4.24885C13.4622 4.13365 13.5752 4.02404 13.6928 3.92338L13.7286 3.89653C13.8727 3.80146 14.0226 3.71646 14.1725 3.64376L14.2152 3.62586C14.3697 3.57441 14.5335 3.53191 14.7007 3.49836L14.7468 3.49277C14.9209 3.48158 15.0962 3.48158 15.2691 3.49277L15.3153 3.49836C15.4744 3.53079 15.6347 3.57218 15.7903 3.62363L15.833 3.64152C15.9898 3.71758 16.1432 3.8037 16.2873 3.89765L16.3242 3.92561C16.443 4.02851 16.5572 4.13812 16.6609 4.25221L16.6886 4.28688C16.7866 4.42669 16.8743 4.57209 16.9492 4.71749L16.9665 4.75775C17.0161 4.89644 17.0564 5.03849 17.0899 5.19396L17.0968 5.24093C17.1026 5.31811 17.1083 5.41877 17.1083 5.5239C17.1083 5.60779 17.1049 5.69615 17.098 5.79346L17.0922 5.83819C17.0599 5.98919 17.0161 6.14242 16.963 6.29229L16.9457 6.33368C16.8685 6.48243 16.782 6.62671 16.6886 6.76205L16.6609 6.79672C16.5514 6.91752 16.4338 7.03048 16.3127 7.13562L16.2769 7.16246C16.1363 7.25418 15.991 7.33694 15.8434 7.40852L15.8019 7.42642C15.6427 7.47899 15.4836 7.52149 15.3279 7.55393L15.2807 7.55952C15.1873 7.56623 15.0939 7.56847 15.0016 7.56847C14.9094 7.56847 14.8252 7.56623 14.7387 7.56064L14.6903 7.55393C14.53 7.52149 14.3697 7.47899 14.2141 7.42754L14.1702 7.41076C14.0215 7.33806 13.8727 7.25306 13.7286 7.15911L13.694 7.13226C13.5764 7.03272 13.4645 6.92423 13.3608 6.81014L13.3319 6.77547C13.2316 6.63119 13.1417 6.48131 13.0633 6.33032L13.046 6.28894C13.0114 6.19163 12.9802 6.08761 12.9503 5.96906L12.9422 5.93662V5.90307C12.9387 5.83708 12.9295 5.7722 12.9145 5.70845L12.9064 5.67602V5.64246C12.9007 5.50601 12.903 5.38521 12.9099 5.27337ZM6.89071 15.646L6.88494 15.6897C6.8515 15.853 6.80653 16.014 6.75234 16.1684L6.73389 16.2098C6.65663 16.3596 6.56899 16.5061 6.47213 16.6437L6.44446 16.6784C6.33953 16.7936 6.22537 16.9043 6.10545 17.0072L6.07086 17.0329C5.92672 17.1269 5.77912 17.2119 5.63037 17.2846L5.58655 17.3025C5.48623 17.336 5.38015 17.3662 5.2706 17.3931L5.23601 17.402H5.20026C5.12416 17.4065 5.05036 17.4166 4.98002 17.4345L4.94197 17.4445H4.90161C4.85549 17.4468 4.81167 17.4479 4.76785 17.4479C4.68483 17.4479 4.60642 17.4457 4.53147 17.4401L4.48534 17.4345C4.3216 17.402 4.16017 17.3595 4.0045 17.3081L3.96183 17.2913C3.80386 17.2141 3.6505 17.128 3.50636 17.0341L3.47061 17.0061C3.35184 16.9043 3.23884 16.7947 3.13391 16.6806L3.10623 16.646C3.00822 16.505 2.92058 16.3596 2.84563 16.2142L2.82834 16.174C2.77529 16.0241 2.73032 15.8653 2.69573 15.7031L2.68996 15.6583C2.67843 15.4906 2.67843 15.3195 2.68996 15.1517L2.69688 15.1069C2.72917 14.9515 2.77299 14.796 2.82603 14.6461L2.84333 14.6047C2.92174 14.4515 3.01168 14.3028 3.10854 14.163L3.13737 14.1272C3.2423 14.0131 3.3553 13.9035 3.47292 13.8017L3.50867 13.7748C3.6528 13.6798 3.80271 13.5948 3.95261 13.5221L3.99527 13.5053C4.14864 13.4538 4.31122 13.4113 4.47727 13.3778L4.52339 13.3722C4.67906 13.361 4.83819 13.3599 4.99617 13.3677L5.03422 13.3722C5.05497 13.3756 5.07688 13.3778 5.09879 13.38L5.13684 13.3867C5.29136 13.4192 5.44126 13.4594 5.58079 13.5053L5.62345 13.5232C5.77336 13.5959 5.92095 13.6798 6.06163 13.7715L6.09738 13.7995C6.22076 13.9046 6.33838 14.0176 6.44561 14.135L6.47444 14.1708C6.57015 14.3084 6.65778 14.4538 6.73389 14.6014L6.75234 14.6439C6.80653 14.7982 6.8515 14.9604 6.88494 15.1248L6.89186 15.1685C6.89648 15.2512 6.89878 15.3284 6.89878 15.4067C6.89878 15.485 6.89648 15.561 6.89071 15.646ZM17.0991 25.5814L17.0922 25.6261C17.0599 25.7794 17.0172 25.9315 16.9653 26.0791L16.9469 26.1205C16.8685 26.2726 16.7797 26.4214 16.6817 26.5612L16.654 26.597C16.5479 26.7122 16.4349 26.8229 16.3173 26.9236L16.2816 26.9504C16.1363 27.0455 15.9864 27.1305 15.8376 27.2032L15.7961 27.22C15.6404 27.2714 15.4767 27.315 15.3095 27.3475L15.2634 27.3542C15.1769 27.3598 15.0904 27.362 15.0039 27.362C14.9174 27.362 14.8287 27.3598 14.7422 27.3542L14.6949 27.3475C14.5346 27.3161 14.3755 27.2736 14.221 27.2222L14.1772 27.2054C14.0203 27.1294 13.867 27.0432 13.7228 26.9482L13.6859 26.9202C13.5672 26.8184 13.4542 26.7088 13.3492 26.5947L13.3227 26.5601C13.2235 26.4191 13.1359 26.2748 13.0621 26.1294L13.0437 26.0881C12.9906 25.9382 12.9456 25.7782 12.911 25.6138L12.9053 25.5691C12.8949 25.4058 12.8949 25.238 12.9053 25.0703L12.911 25.0255C12.9445 24.8678 12.9883 24.7112 13.0425 24.5591L13.0598 24.5177C13.1371 24.369 13.2258 24.2213 13.3227 24.0815L13.3515 24.0457C13.4565 23.9305 13.5683 23.822 13.6836 23.7225L13.7205 23.6957C13.8647 23.6017 14.0134 23.5167 14.1622 23.444L14.2048 23.4272C14.3605 23.3747 14.5196 23.3322 14.6753 23.3008L14.7214 23.2941C14.9048 23.2829 15.0881 23.2818 15.268 23.293L15.3164 23.2997C15.4778 23.3322 15.6416 23.3758 15.8019 23.4295L15.8445 23.4462C15.9921 23.5189 16.1374 23.6006 16.2769 23.6912L16.3127 23.7191C16.4326 23.822 16.5479 23.9339 16.6552 24.0502L16.684 24.086C16.7797 24.2247 16.8662 24.3679 16.9411 24.5121L16.9584 24.5535C16.9919 24.6486 17.023 24.7515 17.0541 24.8768L17.0645 24.9383C17.068 24.9931 17.0772 25.0501 17.0922 25.115L17.1003 25.1463L17.1072 25.3208C17.1072 25.4047 17.1037 25.4897 17.098 25.5814H17.0991ZM21.1096 17.8047C21.3621 18.204 21.6596 18.5563 21.9698 18.8247C22.2039 19.0249 22.4207 19.1882 22.634 19.3224L22.9107 19.4969L22.7447 19.7732C22.551 20.0953 22.3342 20.4152 22.1001 20.7239L22.0897 20.7351C21.617 21.2999 21.0773 21.8233 20.4869 22.2897L20.4731 22.2987C20.156 22.5257 19.8273 22.7349 19.4964 22.9228L19.2174 23.0805L19.0363 22.821C18.9279 22.6655 18.8092 22.5179 18.6846 22.3613L18.6685 22.3412C18.145 21.6958 17.3436 21.1769 16.4153 20.8816C14.6246 20.3168 12.4913 20.9308 11.3451 22.3434C11.2275 22.4888 11.0938 22.6521 10.9773 22.8188L10.7963 23.0771L10.5184 22.9206C10.1805 22.7304 9.84957 22.519 9.53477 22.2942L9.52209 22.2853C8.93285 21.8222 8.38859 21.2932 7.90313 20.7127L7.89391 20.7004C7.66444 20.3984 7.45227 20.0864 7.26201 19.771L7.09481 19.4936L7.37386 19.3191C7.77629 19.0674 8.11184 18.7878 8.37014 18.487C8.55925 18.2677 8.77372 18.0105 8.93285 17.7387C9.08621 17.477 9.20614 17.1895 9.31683 16.9177C9.46904 16.533 9.55668 16.0822 9.57513 15.5789L9.57743 15.5543C9.5832 15.5006 9.58666 15.4525 9.58551 15.41C9.57859 14.4448 9.27878 13.4997 8.76334 12.8152C8.60422 12.6038 8.43356 12.3801 8.23984 12.1821C8.03228 11.9685 7.78321 11.7884 7.54336 11.6151C7.49263 11.5771 7.43728 11.5401 7.36925 11.4965L7.09596 11.322L7.26086 11.048C7.45458 10.7237 7.67136 10.4049 7.90429 10.0996L7.91351 10.0884C8.38859 9.51907 8.92363 8.99787 9.50479 8.54041L9.51747 8.53035C9.83688 8.30218 10.1667 8.09079 10.4965 7.90401L10.7847 7.74071L10.9635 8.01362C11.4305 8.72608 12.1062 9.32558 12.8165 9.65553C13.1636 9.81771 13.6271 10.0123 14.1333 10.085L14.1714 10.0906C14.4758 10.1342 14.7652 10.1756 15.05 10.17C15.3499 10.1678 15.6554 10.1219 15.9679 10.0705C16.4176 9.99778 16.9054 9.82218 17.3793 9.56157C17.8244 9.3211 18.2234 9.01129 18.5359 8.66456C18.7215 8.45877 18.8922 8.23843 19.0421 8.0069L19.2208 7.73176L19.5091 7.89618C19.8389 8.08296 20.1652 8.291 20.4777 8.51469L20.4892 8.52364C21.0773 8.98556 21.6158 9.50677 22.0897 10.0727L22.099 10.085C22.3353 10.3948 22.5544 10.7158 22.7481 11.0391L22.9165 11.3187L22.634 11.4921C22.2269 11.7415 21.881 12.0334 21.6077 12.36C21.4117 12.5971 21.2491 12.7973 21.1084 13.0143C20.9585 13.2525 20.8478 13.5154 20.7302 13.7939L20.7187 13.8218C20.5307 14.2714 20.4685 14.7501 20.4327 15.1584C20.3601 16.033 20.6126 17.0229 21.1096 17.8047ZM27.304 15.6673L27.2971 15.712C27.2648 15.8641 27.2222 16.0174 27.1703 16.165L27.1518 16.2064C27.0734 16.3596 26.9846 16.5073 26.8866 16.6471L26.859 16.6829C26.7529 16.7992 26.6399 16.9088 26.5222 17.0095L26.4865 17.0363C26.3424 17.1314 26.1925 17.2164 26.0426 17.2891L26.001 17.3058C25.8465 17.3573 25.6851 17.3998 25.5179 17.4334L25.4718 17.4389C25.3853 17.4445 25.2988 17.4479 25.21 17.4479C25.1212 17.4479 25.0336 17.4445 24.9437 17.4389L24.8952 17.4334C24.7326 17.3998 24.57 17.3573 24.4155 17.3047L24.3729 17.288C24.223 17.2153 24.0754 17.1314 23.9335 17.0385L23.8978 17.0117C23.7744 16.9066 23.6568 16.7936 23.5496 16.675L23.5207 16.6404C23.425 16.5017 23.3374 16.3563 23.2613 16.2086L23.2428 16.1672C23.1898 16.0174 23.1471 15.8653 23.116 15.7165L23.1091 15.6706C23.0964 15.4939 23.0964 15.315 23.1091 15.1394L23.116 15.0935C23.1483 14.9436 23.1909 14.7915 23.244 14.6428L23.2613 14.6014C23.3385 14.4504 23.4273 14.305 23.523 14.1663L23.5507 14.1316C23.6556 14.0176 23.7698 13.9068 23.8897 13.8039L23.9255 13.7782C24.0684 13.6831 24.2172 13.5981 24.3648 13.5265L24.4086 13.5086C24.5216 13.4706 24.6392 13.4382 24.7695 13.408L24.8295 13.399C24.8814 13.3957 24.9379 13.3879 25.0002 13.3744L25.0324 13.3666H25.0647C25.2077 13.361 25.3392 13.3621 25.4649 13.37L25.511 13.3767C25.6736 13.4091 25.835 13.4516 25.9907 13.5031L26.0333 13.5198C26.1925 13.597 26.3447 13.6831 26.4888 13.7771L26.5257 13.8039C26.6433 13.9068 26.7563 14.0164 26.8613 14.1305L26.8889 14.1652C26.9869 14.3061 27.0746 14.4515 27.1495 14.5958L27.1668 14.6372C27.2199 14.7859 27.2648 14.9436 27.2983 15.1047L27.3052 15.1506C27.311 15.2367 27.3133 15.3228 27.3133 15.4067C27.3133 15.4906 27.3098 15.5756 27.304 15.6673Z" fill="#604BA1"/>
</svg>
