<svg width="33" height="37" viewBox="0 0 33 37" fill="none" xmlns="http://www.w3.org/2000/svg">
<g clip-path="url(#clip0_1280_16136)">
<path d="M32.0199 10.805C32.0199 9.67933 31.096 8.76288 29.9613 8.76288H25.8046C25.5648 6.55868 24.5697 4.52313 22.9382 2.94908C22.9329 2.94385 22.9276 2.94124 22.9223 2.93601C21.1115 1.19462 18.7301 0.236328 16.2128 0.236328C13.6956 0.236328 11.3036 1.19985 9.49018 2.94908C9.48491 2.95431 9.47964 2.95954 9.47436 2.96608C7.85201 4.53882 6.86226 6.56783 6.62372 8.76549H2.46703C1.3323 8.76549 0.408447 9.68194 0.408447 10.8076V24.4498V29.1798C0.408447 30.3054 1.3323 31.2219 2.46703 31.2219H10.7448V33.1201L8.97619 35.1975C8.78641 35.4211 8.74292 35.7349 8.86812 36.0015C8.99201 36.2682 9.26086 36.4382 9.55739 36.4382H22.8723C23.1675 36.4382 23.4363 36.2682 23.5589 36.0015C23.6841 35.7349 23.6419 35.4211 23.4508 35.1975L21.6822 33.1201V31.2219H29.96C31.0947 31.2219 32.0186 30.3054 32.0186 29.1798V24.4563C32.0186 24.4563 32.0186 24.4511 32.0186 24.4498V10.8063L32.0199 10.805ZM10.0635 4.54274C10.0951 4.56889 10.1267 4.59242 10.1584 4.61726C10.19 4.6421 10.2216 4.66694 10.2519 4.69178C10.3389 4.75976 10.4259 4.82644 10.5142 4.8905C10.5485 4.91534 10.584 4.94149 10.6183 4.96502C10.7066 5.02777 10.7949 5.08791 10.8845 5.14805C10.9201 5.17158 10.9557 5.19511 10.9913 5.21734C11.0849 5.27748 11.1784 5.335 11.2733 5.39122C11.3063 5.41083 11.3379 5.43044 11.3708 5.45005C11.4776 5.51149 11.5843 5.57032 11.6924 5.62785C11.7148 5.63961 11.7359 5.65138 11.7583 5.66315C11.9586 5.76643 12.1616 5.86186 12.3685 5.95076C12.1866 6.94435 12.0772 7.99677 12.0417 9.05049H8.11823C8.27375 7.37839 8.9472 5.8148 10.0595 4.54144L10.0635 4.54274ZM20.7544 5.61608C20.8519 5.56379 20.9507 5.51018 21.0469 5.45528C21.0918 5.42913 21.1352 5.40298 21.1787 5.37684C21.2605 5.32846 21.3408 5.27878 21.4212 5.2278C21.4713 5.19642 21.5201 5.16374 21.5688 5.13105C21.6413 5.08268 21.7138 5.03431 21.785 4.98332C21.8377 4.94672 21.8891 4.9088 21.9418 4.87089C22.0077 4.82252 22.0736 4.77284 22.1382 4.72316C22.1922 4.68132 22.2462 4.63949 22.299 4.59635C22.3214 4.57935 22.3438 4.56236 22.3649 4.54405C23.4798 5.81741 24.1506 7.3797 24.3061 9.05311H20.3827C20.3471 8.00069 20.2378 6.94696 20.0559 5.95468C20.2615 5.86578 20.4644 5.77166 20.6634 5.66837C20.6938 5.65269 20.7241 5.63569 20.7544 5.61869V5.61608ZM12.0456 10.5579C12.0812 11.6116 12.1906 12.664 12.3725 13.6576C11.5474 14.0145 10.7712 14.4865 10.0674 15.0682C8.99201 13.8328 8.28561 12.2731 8.12482 10.5579H12.0456ZM17.2369 6.68811C17.3476 6.67634 17.4596 6.66327 17.569 6.64758C17.6125 6.64104 17.6546 6.63451 17.6981 6.62797C17.8036 6.61228 17.9077 6.59398 18.0118 6.57437C18.0566 6.56652 18.1001 6.55737 18.1449 6.54822C18.2477 6.5273 18.3505 6.50508 18.4533 6.48024C18.4968 6.46978 18.539 6.45932 18.5825 6.44886C18.5904 6.44625 18.5996 6.44494 18.6075 6.44233C18.7406 7.22935 18.8302 8.10266 18.8619 9.04788H16.9746V6.71033C17.0247 6.70641 17.0748 6.70249 17.1248 6.69726C17.1631 6.69334 17.2 6.68942 17.2382 6.68549L17.2369 6.68811ZM21.0074 16.3089C20.9718 16.3337 20.9362 16.3586 20.9007 16.3834C20.8414 16.4253 20.7807 16.4684 20.7201 16.5089C20.6437 16.5599 20.5659 16.6083 20.4882 16.6567C20.4658 16.671 20.4433 16.6854 20.4196 16.6998C20.3129 16.7639 20.2048 16.8253 20.0941 16.8855C20.0756 16.8959 20.0559 16.9051 20.0374 16.9155C19.9452 16.9652 19.8516 17.0123 19.7567 17.058C19.7317 17.0698 19.708 17.0816 19.6829 17.0933C19.5933 17.1352 19.501 17.177 19.4101 17.2162C19.3837 17.228 19.3574 17.2384 19.331 17.2489C19.2375 17.2868 19.1439 17.3247 19.049 17.36C19.024 17.3692 19.0002 17.3783 18.9752 17.3875C18.9172 17.4084 18.8579 17.4267 18.7986 17.4476C19.1637 16.8005 19.4668 16.0213 19.7093 15.1611C20.2562 15.4212 20.7755 15.7415 21.2565 16.1207C21.2433 16.1311 21.2288 16.1429 21.2143 16.1533C21.1458 16.2069 21.0759 16.2592 21.0061 16.3115L21.0074 16.3089ZM13.3596 17.3509C13.2765 17.3195 13.1935 17.2868 13.1105 17.2528C13.0749 17.2384 13.0393 17.2227 13.0037 17.2084C12.9233 17.1744 12.8429 17.1378 12.7639 17.1012C12.7296 17.0855 12.694 17.0698 12.6598 17.0528C12.578 17.0136 12.4963 16.9717 12.4159 16.9286C12.3856 16.9129 12.3553 16.8985 12.3263 16.8815C12.2235 16.8266 12.1234 16.7678 12.0232 16.709C11.9837 16.6854 11.9454 16.6606 11.9072 16.6371C11.84 16.5952 11.7728 16.5534 11.7069 16.5102C11.6489 16.4723 11.5936 16.4318 11.5369 16.3926C11.496 16.3638 11.4552 16.3364 11.4156 16.3076C11.3524 16.2618 11.2918 16.2148 11.2298 16.1677C11.2101 16.152 11.1903 16.1376 11.1705 16.122C11.6516 15.7415 12.1708 15.4212 12.7177 15.1624C12.9589 16.0226 13.2634 16.8005 13.6284 17.4489C13.5731 17.4306 13.5177 17.4123 13.4624 17.3927C13.4281 17.3809 13.3938 17.3679 13.3596 17.3548V17.3509ZM15.455 17.4306C14.9806 16.9155 14.5022 15.9559 14.1424 14.6381C14.5707 14.527 15.0083 14.4499 15.455 14.408V17.4306ZM16.9746 17.4306V14.408C17.4201 14.4485 17.8589 14.5257 18.2872 14.6381C17.9288 15.9559 17.4491 16.9155 16.9746 17.4306ZM16.9746 12.8967V10.5579H18.8619C18.8302 11.5044 18.7406 12.3764 18.6075 13.1634C18.0751 13.0288 17.5294 12.9399 16.9733 12.8967H16.9746ZM15.455 5.19904C15.3971 5.19381 15.3404 5.18727 15.2824 5.18073C15.231 5.1755 15.1796 5.16897 15.1282 5.16243C15.0584 5.15328 14.9898 5.14282 14.9213 5.13236C14.8712 5.12452 14.8198 5.11537 14.7697 5.10621C14.6999 5.09445 14.6314 5.08137 14.5628 5.06699C14.5141 5.05653 14.4666 5.04607 14.4179 5.03562C14.348 5.01993 14.2782 5.00424 14.2083 4.98724C14.1859 4.98202 14.1648 4.97548 14.1424 4.96894C14.5009 3.65244 14.9806 2.69284 15.4537 2.17775V5.19904H15.455ZM13.8419 6.44886C13.8894 6.46063 13.9355 6.47109 13.9829 6.48285C14.0818 6.50639 14.1793 6.5273 14.2795 6.54822C14.3269 6.55737 14.3744 6.56783 14.4218 6.57568C14.5233 6.59398 14.6248 6.61097 14.7262 6.62666C14.7724 6.6332 14.8172 6.64104 14.8633 6.64758C14.9714 6.66196 15.0794 6.67504 15.1888 6.6868C15.2284 6.69072 15.2679 6.69595 15.3074 6.69987C15.3562 6.7051 15.4063 6.70903 15.455 6.71164V9.04919H13.5678C13.5994 8.10266 13.689 7.23066 13.8222 6.44363C13.8287 6.44494 13.8367 6.44756 13.8432 6.44886H13.8419ZM15.455 10.5579V12.8967C14.9002 12.9399 14.3533 13.0288 13.8208 13.1634C13.6877 12.3764 13.5981 11.5031 13.5665 10.5566H15.4537L15.455 10.5579ZM20.0559 13.6576C20.2378 12.664 20.3471 11.6103 20.3827 10.5579H24.3048C24.144 12.2731 23.4376 13.8341 22.3622 15.0682C21.6571 14.4878 20.8822 14.0145 20.0559 13.6576ZM18.2134 4.98855C18.1515 5.00424 18.0896 5.01731 18.0276 5.03169C17.9709 5.04477 17.9156 5.05784 17.8589 5.0683C17.7957 5.08137 17.7324 5.09314 17.6678 5.10491C17.6125 5.11536 17.5571 5.12452 17.5004 5.13367C17.4346 5.14413 17.37 5.15328 17.3041 5.16243C17.25 5.17027 17.1947 5.1755 17.1407 5.18204C17.0853 5.18858 17.03 5.19381 16.9746 5.19904V2.17905C17.4477 2.69415 17.9275 3.65375 18.2859 4.97025C18.2622 4.97679 18.2372 4.98332 18.2134 4.98986V4.98855ZM12.7177 4.44862C12.7072 4.44339 12.6967 4.43946 12.6861 4.43423C12.6387 4.4107 12.5899 4.38848 12.5425 4.36364C12.4832 4.33357 12.4252 4.3035 12.3672 4.27212C12.3171 4.24467 12.267 4.21721 12.2183 4.18976C12.1629 4.15838 12.1089 4.12831 12.0548 4.09563C12.0008 4.06425 11.9481 4.03026 11.8954 3.99758C11.8466 3.96751 11.7978 3.93744 11.7491 3.90476C11.6805 3.86031 11.6133 3.81324 11.5461 3.76618C11.5145 3.74395 11.4815 3.72304 11.4499 3.6995C11.355 3.63152 11.2628 3.56092 11.1705 3.48771C11.9125 2.90202 12.7441 2.45621 13.6284 2.16075C13.2634 2.8092 12.9589 3.58707 12.7177 4.44862ZM20.7952 3.82632C20.761 3.84985 20.7254 3.87469 20.6911 3.89822C20.6318 3.93744 20.5712 3.97405 20.5119 4.01196C20.4684 4.03941 20.4249 4.06556 20.3814 4.09171C20.3234 4.12701 20.2641 4.15969 20.2061 4.19237C20.1587 4.21852 20.1112 4.24467 20.0638 4.27082C20.0058 4.30219 19.9478 4.33226 19.8885 4.36233C19.8384 4.38717 19.7883 4.41201 19.7369 4.43685C19.729 4.44077 19.7198 4.44469 19.7119 4.44862C19.4707 3.58707 19.165 2.8092 18.7999 2.16075C19.6855 2.45621 20.5171 2.90202 21.2591 3.48771C21.1089 3.60668 20.9534 3.71781 20.7965 3.82632H20.7952ZM1.928 10.8076C1.928 10.5121 2.1705 10.2729 2.46703 10.2729H6.57759C6.57759 10.2794 6.57759 10.2872 6.57891 10.2938C6.57891 10.3147 6.58286 10.3343 6.58286 10.3552C6.59077 10.4951 6.60132 10.6337 6.6145 10.771C6.61845 10.8141 6.62504 10.8559 6.63031 10.8991C6.64349 11.0141 6.65667 11.1292 6.6738 11.2416C6.68171 11.2952 6.69225 11.3475 6.70148 11.4011C6.71861 11.5031 6.73574 11.6038 6.75683 11.7044C6.76869 11.7632 6.78319 11.8221 6.79637 11.8809C6.81745 11.9737 6.83722 12.0679 6.86094 12.1607C6.87676 12.2234 6.89521 12.2836 6.91234 12.3463C6.93738 12.4339 6.96111 12.5215 6.98746 12.6091C7.00723 12.6732 7.02964 12.7359 7.05072 12.7987C7.0784 12.881 7.10608 12.9647 7.13507 13.0471C7.15879 13.1111 7.18383 13.1752 7.20887 13.2392C7.23919 13.319 7.27082 13.3974 7.30376 13.4759C7.33012 13.5399 7.35912 13.6027 7.38811 13.6668C7.42238 13.7426 7.45664 13.8197 7.49222 13.8942C7.52254 13.9583 7.55417 14.021 7.58711 14.0838C7.62402 14.157 7.66092 14.2302 7.70045 14.3021C7.73472 14.3649 7.76899 14.4263 7.80457 14.4891C7.84411 14.5597 7.88496 14.629 7.92582 14.6983C7.96272 14.7597 8.00094 14.8198 8.03916 14.8813C8.08265 14.9493 8.12482 15.0159 8.16963 15.0826C8.20917 15.1428 8.25134 15.2016 8.2922 15.2604C8.33832 15.3258 8.38445 15.3911 8.4319 15.4539C8.47539 15.5114 8.51888 15.5689 8.56369 15.6265C8.61245 15.6892 8.66121 15.7507 8.71129 15.8121C8.75742 15.8683 8.80355 15.9232 8.85099 15.9795C8.90239 16.0396 8.95379 16.0997 9.00651 16.1586C9.05527 16.2122 9.10403 16.2658 9.15411 16.3194C9.20815 16.3769 9.26218 16.4344 9.31885 16.4906C9.36761 16.5403 9.4177 16.59 9.46778 16.6384C9.47568 16.6462 9.48227 16.6554 9.49018 16.6632C9.4994 16.6724 9.50995 16.6802 9.51917 16.6894C9.56003 16.7286 9.60352 16.7678 9.64437 16.8057C9.6905 16.8475 9.73531 16.8907 9.78276 16.9312C9.80911 16.9547 9.83679 16.9796 9.86315 17.0031C9.90269 17.0384 9.94486 17.0711 9.98571 17.1051C10.0332 17.1443 10.0793 17.1848 10.128 17.2227C10.1597 17.2489 10.1913 17.275 10.2243 17.3012C10.2453 17.3182 10.2664 17.3326 10.2875 17.3496C10.3112 17.3679 10.335 17.3862 10.3587 17.4032C10.4009 17.4345 10.4417 17.4672 10.4839 17.4973C10.5748 17.564 10.6671 17.628 10.7593 17.6921C10.791 17.713 10.8213 17.7352 10.8516 17.7561C10.9557 17.8254 11.0611 17.8921 11.1679 17.9575C11.1903 17.9706 11.2127 17.9849 11.2351 17.998C11.3498 18.0673 11.4657 18.1327 11.5843 18.1967C11.6015 18.2059 11.6173 18.215 11.6344 18.2242C11.757 18.2895 11.8796 18.3523 12.0048 18.4124C12.0193 18.419 12.0337 18.4268 12.0482 18.4334C12.1734 18.4935 12.3013 18.5497 12.4291 18.6046C12.4449 18.6112 12.4608 18.619 12.4766 18.6255C12.6018 18.6778 12.7283 18.7275 12.8561 18.7746C12.8772 18.7824 12.897 18.7903 12.9168 18.7981C13.0393 18.8426 13.1632 18.8831 13.2871 18.9223C13.3148 18.9315 13.3411 18.9406 13.3675 18.9485C13.4861 18.9851 13.6047 19.0177 13.7246 19.0491C13.7589 19.0583 13.7932 19.0687 13.8287 19.0766C13.9408 19.1053 14.0554 19.1302 14.1688 19.155C14.2109 19.1642 14.2544 19.1746 14.2966 19.1825C14.3045 19.1838 14.3124 19.1864 14.3203 19.1877C14.323 19.1877 14.3243 19.1877 14.3269 19.189C14.4244 19.2086 14.5233 19.2243 14.6221 19.24C14.6709 19.2478 14.7183 19.257 14.7671 19.2648C14.775 19.2648 14.7842 19.2674 14.7921 19.2688C14.8897 19.2831 14.9885 19.2936 15.0874 19.3054C15.1388 19.3119 15.1901 19.3184 15.2415 19.3237C15.2481 19.3237 15.2547 19.325 15.2613 19.3263C15.3667 19.3367 15.4722 19.3433 15.5776 19.3498C15.6264 19.3524 15.6738 19.3577 15.7226 19.3603C15.7265 19.3603 15.7305 19.3603 15.7344 19.3603C15.8926 19.3681 16.0521 19.372 16.2115 19.372C16.2115 19.372 16.2194 19.372 16.2234 19.372C16.3789 19.372 16.5344 19.3681 16.6886 19.3603C16.6926 19.3603 16.6965 19.3603 16.7005 19.3603C16.7466 19.3577 16.7927 19.3537 16.8389 19.3498C16.9469 19.3433 17.055 19.3367 17.1617 19.3263C17.1683 19.3263 17.1762 19.325 17.1828 19.3237C17.2316 19.3184 17.279 19.3119 17.3278 19.3067C17.4293 19.2949 17.5308 19.2844 17.6322 19.2688C17.6415 19.2674 17.6507 19.2661 17.6599 19.2648C17.7047 19.2583 17.7482 19.2491 17.7917 19.2426C17.8945 19.2256 17.996 19.2099 18.0975 19.189C18.0975 19.189 18.1001 19.189 18.1014 19.189C18.1106 19.1877 18.1212 19.1851 18.1304 19.1825C18.1686 19.1746 18.2055 19.1655 18.2424 19.1576C18.3624 19.1328 18.481 19.1053 18.5996 19.0753C18.6286 19.0674 18.6576 19.0596 18.6866 19.0517C18.8118 19.0191 18.937 18.9838 19.0609 18.9458C19.0819 18.9393 19.103 18.9328 19.1241 18.9249C19.2546 18.8844 19.3851 18.8399 19.5129 18.7942C19.5274 18.789 19.5419 18.7837 19.5564 18.7772C19.6895 18.7275 19.8226 18.6765 19.9531 18.6216C19.9636 18.6177 19.9742 18.6125 19.9847 18.6072C20.1178 18.551 20.2496 18.4922 20.3801 18.4294C20.3906 18.4242 20.3999 18.419 20.4104 18.4151C20.5396 18.3536 20.6661 18.2882 20.7926 18.2203C20.8058 18.2124 20.8203 18.2059 20.8334 18.198C20.9534 18.1327 21.072 18.0647 21.1906 17.9941C21.2117 17.981 21.2315 17.9692 21.2525 17.9562C21.3606 17.8908 21.4674 17.8228 21.5728 17.7522C21.6044 17.7313 21.6347 17.7104 21.6651 17.6882C21.7191 17.6516 21.7744 17.615 21.8272 17.577C21.8298 17.5744 21.8337 17.5731 21.8364 17.5705C21.8706 17.5457 21.9049 17.5195 21.9392 17.4947C21.98 17.4646 22.0209 17.4332 22.0617 17.4019C22.1118 17.3639 22.1632 17.3273 22.212 17.2881C22.2397 17.2659 22.266 17.2437 22.2937 17.2214C22.3359 17.1875 22.3767 17.1535 22.4176 17.1195C22.4703 17.0763 22.523 17.0332 22.5744 16.9874C22.5955 16.9691 22.6166 16.9495 22.6377 16.9299C22.6785 16.8933 22.7194 16.8554 22.7602 16.8188C22.8143 16.7691 22.867 16.7207 22.9197 16.6697C22.9237 16.6658 22.9289 16.6619 22.9329 16.658C22.9368 16.6541 22.9408 16.6488 22.9447 16.6449C22.9527 16.6371 22.9606 16.6292 22.9685 16.6214C23.008 16.5821 23.0475 16.5429 23.0871 16.5037C23.1556 16.4344 23.2215 16.3651 23.2874 16.2945C23.3256 16.254 23.3625 16.2135 23.3994 16.1729C23.464 16.101 23.5286 16.0278 23.5918 15.9533C23.6274 15.9115 23.6617 15.8696 23.6973 15.8278C23.7592 15.752 23.8198 15.6748 23.8791 15.5977C23.9121 15.5546 23.945 15.5114 23.978 15.4683C24.036 15.3898 24.094 15.3101 24.1493 15.229C24.1796 15.1846 24.2113 15.1401 24.2416 15.0957C24.2969 15.0146 24.3496 14.931 24.4024 14.8473C24.4313 14.8015 24.4603 14.7558 24.488 14.71C24.5394 14.625 24.5882 14.5401 24.6369 14.4538C24.6633 14.4067 24.691 14.3596 24.716 14.3113C24.7621 14.225 24.807 14.1374 24.8518 14.0485C24.8768 13.9988 24.9018 13.9504 24.9256 13.9008C24.9677 13.8132 25.0073 13.723 25.0481 13.6341C25.0705 13.5831 25.0943 13.5321 25.1153 13.4798C25.1536 13.3909 25.1878 13.3007 25.2234 13.2092C25.2445 13.1556 25.2656 13.102 25.2854 13.0471C25.3183 12.9582 25.3486 12.8667 25.3776 12.7764C25.3961 12.7189 25.4158 12.6627 25.4343 12.6052C25.462 12.5163 25.4857 12.4274 25.5107 12.3372C25.5279 12.2757 25.5463 12.2156 25.5621 12.1528C25.5845 12.0666 25.603 11.9803 25.6227 11.894C25.6372 11.8273 25.6544 11.7606 25.6675 11.694C25.6834 11.6129 25.6979 11.5318 25.711 11.4508C25.7242 11.3763 25.7387 11.3018 25.7506 11.2259C25.7611 11.1553 25.769 11.0834 25.7783 11.0128C25.7888 10.9252 25.802 10.839 25.8112 10.7514C25.8165 10.7004 25.8191 10.6481 25.8231 10.5958C25.8323 10.4873 25.8415 10.3788 25.8468 10.2689H29.9574C30.2552 10.2689 30.4964 10.5095 30.4964 10.8037V23.6915H1.92668V10.8037L1.928 10.8076ZM20.3419 33.8836L21.2341 34.9321H11.1942L12.0865 33.8836C12.2024 33.7477 12.2657 33.5738 12.2657 33.396V31.2219H20.1626V33.396C20.1626 33.5751 20.2259 33.7464 20.3419 33.8836ZM29.96 29.7158H20.9283C20.9283 29.7158 20.9244 29.7158 20.9217 29.7158H11.5039C11.5039 29.7158 11.5 29.7158 11.4974 29.7158H2.46703C2.16918 29.7158 1.928 29.4752 1.928 29.1811V25.2054H30.5003V29.1811C30.5003 29.4766 30.2578 29.7158 29.9613 29.7158H29.96Z" fill="#604BA1" stroke="#604BA1" stroke-width="0.31293" stroke-miterlimit="10"/>
</g>
<defs>
<clipPath id="clip0_1280_16136">
<rect width="31.7103" height="36.2999" fill="white" transform="translate(0.358643 0.185547)"/>
</clipPath>
</defs>
</svg>
