<svg width="21" height="34" viewBox="0 0 21 34" fill="none" xmlns="http://www.w3.org/2000/svg">
<path d="M10.4961 0.00130249C8.08383 0.00130249 6.11168 1.9863 6.11168 4.40632C6.11168 5.63978 6.62711 6.75211 7.44895 7.55184C5.34177 8.56647 3.80975 10.5958 3.49296 13.0093H2.70488V8.61858L4.11356 7.20537C4.39789 6.92273 4.48228 6.49552 4.32518 6.12561C4.16809 5.75831 3.80196 5.52256 3.40338 5.53298C3.1489 5.54079 2.91001 5.64629 2.73344 5.82734L0.757396 7.80973V13.034C0.488644 13.0952 0.258841 13.2672 0.123815 13.5081C-0.00991186 13.7491 -0.0371766 14.0356 0.0511093 14.2987L1.99989 20.0023C2.13362 20.3983 2.50364 20.6653 2.9191 20.6666H3.47349V32.2314C3.47219 32.4919 3.57605 32.7433 3.75782 32.9269C3.94218 33.1106 4.19146 33.2135 4.44982 33.2122H16.5489C16.8072 33.2122 17.0539 33.108 17.237 32.9243C17.4201 32.7407 17.5213 32.4906 17.52 32.2314V20.6666H18.0744C18.4925 20.6679 18.8677 20.4009 19.0014 20.0023L20.9489 14.2961C21.0489 13.9979 21.0008 13.6683 20.8165 13.4117C20.6321 13.1564 20.3374 13.0054 20.0219 13.0054H17.5006C17.1838 10.5918 15.653 8.56648 13.5485 7.55053C14.3716 6.7508 14.8883 5.63587 14.8883 4.40111C14.887 1.98369 12.9097 0 10.4961 0V0.00130249ZM10.4961 1.95504C11.8567 1.95504 12.9395 3.04131 12.9395 4.40632C12.9395 5.77133 11.8567 6.84979 10.4961 6.84979C9.13547 6.84979 8.06046 5.77003 8.06046 4.40632C8.06046 3.04262 9.13676 1.95504 10.4961 1.95504ZM10.4961 8.80613C13.0304 8.80613 15.0961 10.6023 15.5258 13.0093H5.46511C5.89615 10.6023 7.96049 8.80613 10.4948 8.80613H10.4961ZM2.33875 14.963H18.6626L17.385 18.7142H4.44982C4.41607 18.7116 4.38231 18.7116 4.34985 18.7129H3.6176L2.33745 14.963H2.33875ZM5.42486 20.6692H15.5738V31.2624H5.42227L5.42356 20.6692H5.42486Z" fill="#604BA1"/>
</svg>
