<svg width="30" height="24" viewBox="0 0 30 24" fill="none" xmlns="http://www.w3.org/2000/svg">
<g clip-path="url(#clip0_1280_16127)">
<path d="M18.3198 10.7164C18.3198 12.9993 20.1683 15.7524 22.4614 15.7524C24.7545 15.7524 26.6071 12.9993 26.6071 10.7164C26.6071 8.43342 24.7472 6.63086 22.4614 6.63086C20.1766 6.63189 18.3198 8.46421 18.3198 10.7164ZM24.4046 10.7164C24.4046 12.0026 23.3341 13.5803 22.4635 13.5803C21.5929 13.5803 20.5255 11.9749 20.5255 10.7164C20.5255 9.66112 21.3961 8.80399 22.4635 8.80399C23.534 8.80501 24.4046 9.66318 24.4046 10.7164Z" fill="#604BA1"/>
<path d="M13.9209 16.5939H3.14472V2.28641H21.3616V4.81368C21.3616 5.41419 21.8541 5.89973 22.4623 5.89973C23.0705 5.89973 23.5641 5.41419 23.5641 4.81368V1.19933C23.5651 0.598821 23.0736 0.113281 22.4633 0.113281H2.04294C1.43373 0.113281 0.941162 0.598821 0.941162 1.19933V17.679C0.941162 18.2795 1.43373 18.764 2.04294 18.764H13.9199C14.5291 18.764 15.0206 18.2795 15.0206 17.679C15.0216 17.0784 14.5301 16.5939 13.9209 16.5939Z" fill="#604BA1"/>
<path d="M22.4923 16.1031C20.975 16.1031 19.5765 16.566 18.4414 17.3431L15.8296 13.4341C15.4963 12.9322 14.8132 12.7926 14.305 13.1251C13.7958 13.4536 13.6541 14.1281 13.9905 14.629L16.8356 18.8849C16.1014 19.8878 15.6713 21.096 15.6713 22.3925C15.6713 22.992 16.1639 23.4786 16.772 23.4786C17.3802 23.4786 17.8738 22.991 17.8738 22.3925C17.8738 20.1219 19.9462 18.2741 22.4934 18.2741C25.0406 18.2741 27.1098 20.1219 27.1098 22.3925C27.1098 22.992 27.6024 23.4786 28.2105 23.4786C28.8187 23.4786 29.3123 22.991 29.3123 22.3925C29.3123 18.9239 26.2527 16.1031 22.4913 16.1031H22.4923Z" fill="#604BA1"/>
<path d="M15.8537 4.5957H6.80832C6.19912 4.5957 5.70654 5.08124 5.70654 5.68073C5.70654 6.28021 6.19912 6.76678 6.80832 6.76678H15.8527C16.4609 6.76678 16.9534 6.28124 16.9534 5.68073C16.9545 5.08124 16.4619 4.5957 15.8537 4.5957Z" fill="#604BA1"/>
<path d="M16.9545 9.44049C16.9545 8.84101 16.4619 8.35547 15.8537 8.35547H6.80832C6.19912 8.35444 5.70654 8.83998 5.70654 9.43947C5.70654 10.039 6.19912 10.5255 6.80832 10.5255H15.8527C16.4619 10.5265 16.9545 10.041 16.9545 9.44049Z" fill="#604BA1"/>
<path d="M6.80832 12.1113C6.19912 12.1113 5.70654 12.5958 5.70654 13.1964C5.70654 13.7969 6.19912 14.2824 6.80832 14.2824H12.0392C12.6484 14.2824 13.1409 13.7969 13.1409 13.1964C13.1409 12.5958 12.6484 12.1113 12.0392 12.1113H6.80832Z" fill="#604BA1"/>
</g>
<defs>
<clipPath id="clip0_1280_16127">
<rect width="28.3724" height="23.3655" fill="white" transform="translate(0.941162 0.113281)"/>
</clipPath>
</defs>
</svg>
